# xmcd
#
# Track frame offsets:
#	225
#	14922
#	26677
#	40437
#	52020
#	64607
#	74762
#	84577
#	95205
#	108135
#	119972
#	131005
#	141202
#	154135
#	171350
#	183665
#	195672
#	206605
#	218827
#	231320
#	241542
#	259417
#	271890
#	284150
#
# Disc length: 3924 seconds
#
# Revision: 1
# Processed by: cddbd v1.5PL3 Copyright (c) Steve Scherf et al.
# Submitted via: EasyCDDAExtractor 5.0.6
#
DISCID=880f5118
DTITLE=Jeannie C. Riley - The Very Best Of Jeannie C. Riley (Harper Valley P.T
DTITLE=A.)
DYEAR=1900
DGENRE=Country
TTITLE0=Harper Valley P.T.A.
TTITLE1=Before The Next Teardrop Falls
TTITLE2=The Wedding Cake
TTITLE3=Duty Not Desire
TTITLE4=Good Enough To Be Your Wife
TTITLE5=A Real Woman
TTITLE6=The Girl Most Likey
TTITLE7=Help Me Make It Through The Night
TTITLE8=Roses And Thorns
TTITLE9=The Back Side Of Dallas
TTITLE10=I'm The Woman That Belongs To Her Man
TTITLE11=Things Go Better With Love
TTITLE12=My Man
TTITLE13=Oh Singer
TTITLE14=Teardrops On Page Fourty-Three
TTITLE15=Country Girl
TTITLE16=That's How It Is With Him And Me
TTITLE17=I Love Him
TTITLE18=The Generation Gap
TTITLE19=He Made A Woman Out Of Me
TTITLE20=The Rib
TTITLE21=I'm Only A Woman
TTITLE22=There Never Was A Time
TTITLE23=Macon County Bad Girl
EXTD=
EXTT0=
EXTT1=
EXTT2=
EXTT3=
EXTT4=
EXTT5=
EXTT6=
EXTT7=
EXTT8=
EXTT9=
EXTT10=
EXTT11=
EXTT12=
EXTT13=
EXTT14=
EXTT15=
EXTT16=
EXTT17=
EXTT18=
EXTT19=
EXTT20=
EXTT21=
EXTT22=
EXTT23=
PLAYORDER=
